{"title":"The Dark Knight Rises 2012 720p BluRay QEBSx AAC20 MP4-FASM","uid":8835931,"size":3030857036,"categoryP":"video","categoryS":"hd___movies","magnet":"?xt=urn:btih:fcac511931c3d9b32129f3fea0415047546c0982&amp;dn=The+Dark+Knight+Rises+2012+720p+BluRay+QEBSx+AAC20+MP4-FASM&amp;tr=udp%3A%2F%2Ftracker.openbittorrent.com%3A80&amp;tr=udp%3A%2F%2Fopen.demonii.com%3A1337&amp;tr=udp%3A%2F%2Ftracker.coppersurfer.tk%3A6969&amp;tr=udp%3A%2F%2Fexodus.desync.com%3A6969","seeders":5,"leechers":0,"uploader":"SaM","files":10,"time":1377113452,"description":" &lt;a href=&quot;http://imdb.com/title/tt1345836/&quot; rel=&quot;nofollow&quot; target=&quot;_NEW&quot;&gt;http://imdb.com/title/tt1345836/&lt;/a&gt;\n\nPlot:\nEight years on, a new evil rises from where the Batman and Commissioner Gordon \ntried to bury it, causing the Batman to resurface and fight to protect Gotham \nCity... the very city which brands him an enemy.\n\nSUBTITLES:\nENGLISH, POLISH others from other BluRay releases on subscene.com\n\nGeneral\nComplete name                  : The_Dark_Knight_Rises_2012_720p_BluRay_QEBSx_AAC20_MP4-FASM.mp4\nFormat                         : MPEG-4\nFormat profile                 : Base Media\nCodec ID                       : isom\nFile size                      : 2.80 GiB\nDuration                       : 2h 44mn\nOverall bit rate mode          : Variable\nOverall bit rate               : 2 433 Kbps\nEncoded date                   : UTC 2013-08-06 08:21:40\nTagged date                    : UTC 2013-08-06 08:21:40\n\nVideo\nID                             : 1\nFormat                         : AVC\nFormat/Info                    : Advanced Video Codec\nFormat profile                 : &lt;a class=&quot;__cf_email__&quot; href=&quot;/cdn-cgi/l/email-protection&quot; data-cfemail=&quot;7f371618173f334c514e&quot;&gt;[email&amp;#160;protected]&lt;/a&gt;&lt;script cf-hash='f9e31' type=&quot;text/javascript&quot;&gt;\n/* &lt;![CDATA[ */!function(){try{var t=&quot;currentScript&quot;in document?document.currentScript:function(){for(var t=document.getElementsByTagName(&quot;script&quot;),e=t.length;e--;)if(t[e].getAttribute(&quot;cf-hash&quot;))return t[e]}();if(t&amp;&amp;t.previousSibling){var e,r,n,i,c=t.previousSibling,a=c.getAttribute(&quot;data-cfemail&quot;);if(a){for(e=&quot;&quot;,r=parseInt(a.substr(0,2),16),n=2;a.length-n;n+=2)i=parseInt(a.substr(n,2),16)^r,e+=String.fromCharCode(i);e=document.createTextNode(e),c.parentNode.replaceChild(e,c)}}}catch(u){}}();/* ]]&gt; */&lt;/script&gt;\nFormat settings, CABAC         : Yes\nFormat settings, ReFrames      : 5 frames\nCodec ID                       : avc1\nCodec ID/Info                  : Advanced Video Coding\nDuration                       : 2h 44mn\nBit rate                       : 2 294 Kbps\nMaximum bit rate               : 7 523 Kbps\nWidth                          : 1 280 pixels\nHeight                         : 720 pixels\nDisplay aspect ratio           : 16:9\nFrame rate mode                : Constant\nFrame rate                     : 23.976 fps\nColor space                    : YUV\nChroma subsampling             : 4:2:0\nBit depth                      : 8 bits\nScan type                      : Progressive\nBits/(Pixel*Frame)             : 0.104\nStream size                    : 2.64 GiB (94%)\nWriting library                : FASM Quality Enhancer Bitrate Squeezer X.2 (c)2013 Fachman\nEncoded date                   : UTC 2013-08-06 08:21:40\nTagged date                    : UTC 2013-08-06 08:23:27\nColor primaries                : BT.709\nTransfer characteristics       : BT.709\nMatrix coefficients            : BT.709\n\nAudio\nID                             : 2\nFormat                         : AAC\nFormat/Info                    : Advanced Audio Codec\nFormat profile                 : LC\nCodec ID                       : 40\nDuration                       : 2h 44mn\nBit rate mode                  : Variable\nBit rate                       : 135 Kbps\nMaximum bit rate               : 205 Kbps\nChannel(s)                     : 2 channels\nChannel positions              : Front: L R\nSampling rate                  : 48.0 KHz\nCompression mode               : Lossy\nStream size                    : 159 MiB (6%)\nLanguage                       : English\nEncoded date                   : UTC 2013-08-06 08:23:19\nTagged date                    : UTC 2013-08-06 08:23:27\n\nSCREENSHOTS COMPARISION TO OTHERS(FASM-HiDt): &lt;a href=&quot;\nhttp://screenshotcomparison.com/comparison/36775&quot; rel=&quot;nofollow&quot; target=&quot;_NEW&quot;&gt;\nhttp://screenshotcomparison.com/comparison/36775&lt;/a&gt;\n &lt;a href=&quot;\nhttp://img443.imageshack.us/img443/6816/qm9q.png&quot; rel=&quot;nofollow&quot; target=&quot;_NEW&quot;&gt;\nhttp://img443.imageshack.us/img443/6816/qm9q.png&lt;/a&gt;\n &lt;a href=&quot;\nhttp://img22.imageshack.us/img22/897/36ct.png&quot; rel=&quot;nofollow&quot; target=&quot;_NEW&quot;&gt;\nhttp://img22.imageshack.us/img22/897/36ct.png&lt;/a&gt;\n &lt;a href=&quot;\nhttp://img7.imageshack.us/img7/354/zsaf.png&quot; rel=&quot;nofollow&quot; target=&quot;_NEW&quot;&gt;\nhttp://img7.imageshack.us/img7/354/zsaf.png&lt;/a&gt;","torrent":{"xt":"urn:btih:fcac511931c3d9b32129f3fea0415047546c0982","amp;dn":"The+Dark+Knight+Rises+2012+720p+BluRay+QEBSx+AAC20+MP4-FASM","amp;tr":["udp%3A%2F%2Ftracker.openbittorrent.com%3A80","udp%3A%2F%2Fopen.demonii.com%3A1337","udp%3A%2F%2Ftracker.coppersurfer.tk%3A6969","udp%3A%2F%2Fexodus.desync.com%3A6969"],"infoHash":"fcac511931c3d9b32129f3fea0415047546c0982","infoHashBuffer":{"type":"Buffer","data":[252,172,81,25,49,195,217,179,33,41,243,254,160,65,80,71,84,108,9,130]},"announce":[],"urlList":[]}}